<?xml version="1.0" encoding="utf-8"?>
<!-- Generator: Adobe Illustrator 24.0.0, SVG Export Plug-In . SVG Version: 6.00 Build 0)  -->
<svg version="1.1"
	 id="Layer_1" inkscape:version="0.92.4 (5da689c313, 2019-01-14)" sodipodi:docname="ess-logo.svg" xmlns:cc="http://creativecommons.org/ns#" xmlns:dc="http://purl.org/dc/elements/1.1/" xmlns:inkscape="http://www.inkscape.org/namespaces/inkscape" xmlns:rdf="http://www.w3.org/1999/02/22-rdf-syntax-ns#" xmlns:sodipodi="http://sodipodi.sourceforge.net/DTD/sodipodi-0.dtd" xmlns:svg="http://www.w3.org/2000/svg"
	 xmlns="http://www.w3.org/2000/svg" xmlns:xlink="http://www.w3.org/1999/xlink" x="0px" y="0px" viewBox="0 0 254.5 155.5"
	 style="enable-background:new 0 0 254.5 155.5;" xml:space="preserve">
<style type="text/css">
	.st0{fill:#FFFFFF;}
</style>
<sodipodi:namedview  bordercolor="#666666" borderopacity="1" gridtolerance="10" guidetolerance="10" id="namedview63" inkscape:current-layer="Layer_1" inkscape:cx="49.740216" inkscape:cy="80.264432" inkscape:pagecheckerboard="true" inkscape:pageopacity="0" inkscape:pageshadow="2" inkscape:window-height="984" inkscape:window-maximized="0" inkscape:window-width="1222" inkscape:window-x="0" inkscape:window-y="27" inkscape:zoom="1.8837658" objecttolerance="10" pagecolor="#ffffff" showgrid="false">
	</sodipodi:namedview>
<path class="st0" d="M179.1,114l-4.9-14.8l0.9-1.9c2.8-5.7,4.4-11.9,4.9-18.2c0.1-2.9,0.1-5.9-0.2-8.8c-1.3-11.4-6.2-21.4-14.2-29.4
	c-8-8-18.2-12.9-29.6-14.1c-2.8-0.2-5.7-0.3-8.6-0.1c-5,0.4-9.9,1.5-14.6,3.3c-2.2,0.9-4.3,1.9-6.4,3.1c-5,2.9-9.4,6.6-13.2,11
	c-17.5,20.8-14.8,51.8,5.9,69.3c7.9,6.7,17.8,10.7,28.1,11.4c2.1,0.2,7.1,0.1,9-0.2c6-0.7,10.9-2.1,16.1-4.7l2-1l14.8,4.9
	c8.1,2.7,14.8,4.9,14.8,4.9C184,128.8,181.8,122.2,179.1,114z M153.4,101.1h-16.8l-11.1-20h-1.1v20h-17V52h16.7l11.3,18.6h1V52h17
	V101.1z"/>
</svg>
