<svg id="Layer_3" data-name="Layer 3" xmlns="http://www.w3.org/2000/svg" viewBox="0 0 560 560"><defs><style>.cls-1{fill:#fff;}</style></defs><title>Notify_unread</title><path class="cls-1" d="M510,289.4V508.89L386.26,385.12,489.88,281.5,280,71.65,70.19,281.5,174.42,385.74l-15.31,15.31L159,401,50,510V289.25c0-8.71-.19-18,4.89-23.06L264.72,56.34a21.66,21.66,0,0,1,30.62,0L505.19,266.19C510.05,271.05,510,283.38,510,289.4Z"/><path class="cls-1" d="M295.34,56.34,505.19,266.19c4.86,4.86,4.83,17.19,4.83,23.21"/><path class="cls-1" d="M505.19,266.19c4.86,4.86,4.83,7.21,4.83,23.21"/><path class="cls-1" d="M492.27,510,285.4,303.12a6.9,6.9,0,0,0-9.74,0L68.79,510Z"/></svg>