<svg id="Layer_3" data-name="Layer 3" xmlns="http://www.w3.org/2000/svg" viewBox="0 0 560 560"><defs><style>.cls-1{fill:#fff;}</style></defs><title>Notify_trash</title><path class="cls-1" d="M368.63,124.69v-8.24c0-33.33-27.12-63.79-60.45-63.79H249.43C216.1,52.66,189,83.12,189,116.45v8.24H89V159l34.34,2.38V452.33c0,29.31,25.7,55,57.39,55H379.31c31.69,0,57.39-25.7,57.39-55V161.42L471,159V124.69Zm-145.3-8.24c0-14.4,11.71-29.44,26.1-29.44h58.75c14.39,0,26.1,15,26.1,29.44v8.24H223.33ZM229.44,441H195.09V196.3h34.35Zm68.69,0H263.78V196.3h34.35Zm64.39,0H328.18V196.3h34.34Z"/></svg>