<svg id="Layer_3" data-name="Layer 3" xmlns="http://www.w3.org/2000/svg" viewBox="0 0 560 560"><defs><style>.cls-1,.cls-2{fill:#fff;}.cls-1{stroke:#fff;stroke-linecap:round;stroke-width:29.71px;}</style></defs><title>Notify_save_list</title><line class="cls-1" x1="506.33" y1="247.82" x2="300.67" y2="247.82"/><line class="cls-1" x1="506.33" y1="353.96" x2="101.19" y2="353.96"/><line class="cls-1" x1="506.33" y1="460.11" x2="101.19" y2="460.11"/><line class="cls-1" x1="506.33" y1="141.67" x2="300.67" y2="141.67"/><path class="cls-2" d="M155.15,80C97.3,80,50.4,125.81,50.4,182.31S97.3,284.62,155.15,284.62s104.76-45.8,104.76-102.31S213,80,155.15,80Zm70.46,63.25-78.74,98.89a13.41,13.41,0,0,1-9.64,5l-.82,0a13.36,13.36,0,0,1-9.36-3.82L86.78,203.92a13.37,13.37,0,0,1,18.71-19.11l29.69,29.08,69.5-87.3a13.38,13.38,0,0,1,20.93,16.66Z"/></svg>