<svg id="Layer_3" data-name="Layer 3" xmlns="http://www.w3.org/2000/svg" viewBox="0 0 560 560"><defs><style>.cls-1{fill:#fff;}</style></defs><title>Notify_back</title><path class="cls-1" d="M505.44,362.11C473,252.49,374.22,175.84,260,170.47V90.17A20,20,0,0,0,225.77,76L45.55,256.24a20,20,0,0,0,0,28.31L225.77,464.77A20,20,0,0,0,260,450.62v-103c38.88-3.95,143.79,0,223.09,133.32a18.68,18.68,0,0,0,16.46,9,23.47,23.47,0,0,0,6.07-.82c8.67-2.38,14.72-11.21,14.72-20.22A360.15,360.15,0,0,0,505.44,362.11Z"/></svg>