<svg xmlns="http://www.w3.org/2000/svg" viewBox="0 0 3566.29787 832.55049"><defs><style>.cls-1{fill:#fff;}</style></defs><g id="symbol"><path class="cls-1" d="M760.82046,696.53152,723.05086,583.219l6.9707-14.3994c21.7344-44.9033,33.6201-89.1445,37.4541-139.3965,1.2032-15.7636.5215-52.4013-1.2588-67.6171-10.2011-87.2198-47.3242-164.1661-108.8632-225.6573-61.293-61.2353-139.6348-98.5561-226.8555-108.0669-13.8652-1.5117-51.6133-2.1699-65.6152-1.1435a388.46706,388.46706,0,0,0-111.627,25.333,471.79749,471.79749,0,0,0-48.8926,23.4233c-36.7285,21.0498-73.8652,52.0401-101.2148,84.4629a377.36375,377.36375,0,0,0-83.917,303.1162c16.6318,104.2627,76.8828,197.0547,165.7666,255.3028,53.8281,35.2705,114.1064,55.6777,179.084,60.6123,15.8418,1.2031,54.2461.5293,68.8164-1.2032,45.7695-5.456,83.3476-16.372,123.5517-35.8994l15.0401-7.3066,113.3115,37.7685c62.333,20.7803,113.4141,37.6622,113.5459,37.5293C798.47866,809.94762,781.59776,758.86462,760.82046,696.53152Zm-197.1944-99.4394H435.14856L349.87116,443.929h-8.415v153.1631H211.296V221.19852h127.9161l86.3994,142.503h7.8545v-142.503h130.1601Z"/><path class="cls-1" d="M915.85946,226.69052h239.6719v65.365h-164.502v86.6086h131.8194v64.2757H991.02936v88.7875h164.502v65.3648H915.85946Z"/><path class="cls-1" d="M1434.41026,294.23442s-76.8037-8.7153-108.397-8.7153c-40.3081,0-59.373,14.707-59.373,39.2187,0,23.4227,14.707,31.5933,76.80372,51.2027,80.0723,25.6013,104.584,47.9343,104.584,109.4861,0,80.6172-55.0152,118.2021-128.0064,118.2021-50.65818,0-123.6484-16.8857-123.6484-16.8857l7.6255-58.2842s72.9907,9.8047,111.6655,9.8047c40.3081,0,57.7388-19.0645,57.7388-47.9346,0-22.8774-13.0728-33.2266-66.4546-48.4785-83.3399-23.9673-114.9331-52.2922-114.9331-111.6653,0-76.8039,51.2026-110.0312,126.3725-110.0312,49.5684,0,122.0147,14.7072,122.0147,14.7072Z"/><path class="cls-1" d="M1725.276,294.23442s-76.8037-8.7153-108.397-8.7153c-40.3085,0-59.373,14.707-59.373,39.2187,0,23.4227,14.707,31.5933,76.8037,51.2027,80.0723,25.6013,104.584,47.9343,104.584,109.4861,0,80.6172-55.0156,118.2021-128.0064,118.2021-50.6577,0-123.64889-16.8857-123.64889-16.8857l7.626-58.2842s72.99119,9.8047,111.665,9.8047c40.30859,0,57.73929-19.0645,57.73929-47.9346,0-22.8774-13.0732-33.2266-66.4541-48.4785-83.34079-23.9673-114.93359-52.2922-114.93359-111.6653,0-76.8039,51.2022-110.0312,126.37209-110.0312,49.56831,0,122.0146,14.7072,122.0146,14.7072Z"/><path class="cls-1" d="M1908.28036,226.69052h126.917l89.332,305.0368h5.44728V226.69052h75.1694v370.4016h-123.6489l-92.6001-305.0366h-5.4473v305.0366h-75.16938Z"/><path class="cls-1" d="M2242.17836,414.07012c0-125.2829,37.04-193.9162,153.6074-193.9162,116.5679,0,153.6079,68.6333,153.6079,193.9162,0,125.2832-37.04,189.5586-153.6079,189.5586C2279.21836,603.62872,2242.17836,539.35332,2242.17836,414.07012Zm229.8667,0c0-85.5193-15.252-128.551-76.2593-128.551s-76.2588,43.0317-76.2588,128.551c0,85.5196,15.2515,124.1934,76.2588,124.1934S2472.04506,499.58972,2472.04506,414.07012Z"/><path class="cls-1" d="M2542.30476,226.69052h272.3545v66.4543h-98.0478v303.9473h-75.169V293.14482h-99.1377Z"/><path class="cls-1" d="M2856.59,226.69052h75.1689v370.4016H2856.59Z"/><path class="cls-1" d="M2996.03136,226.69052h236.4033v65.365h-161.2344v108.9416h131.8204v65.365h-131.8204v130.73h-75.1689Z"/><path class="cls-1" d="M3439.96006,597.09212h-75.1699V447.29772l-114.3887-220.6072h83.3399l68.0888,147.6159,68.0889-147.6159h83.3398l-113.2988,220.6072Z"/></g></svg>