<?xml version="1.0" encoding="utf-8"?>
<!-- Generator: Adobe Illustrator 24.0.0, SVG Export Plug-In . SVG Version: 6.00 Build 0)  -->
<svg version="1.1" id="max" xmlns="http://www.w3.org/2000/svg" xmlns:xlink="http://www.w3.org/1999/xlink" x="0px" y="0px"
	 viewBox="0 0 254.5 155.5" style="enable-background:new 0 0 254.5 155.5;" xml:space="preserve">
<style type="text/css">
	.st0{fill:#FFFFFF;}
	.st1{fill:none;stroke:#FFFFFF;stroke-width:2.6667;stroke-miterlimit:1.3333;}
	.st2{fill:none;stroke:#FFFFFF;stroke-width:0.5;stroke-linecap:square;stroke-linejoin:round;stroke-miterlimit:1.3333;}
	.st3{fill:none;stroke:#FFFFFF;stroke-width:1;stroke-linejoin:round;stroke-miterlimit:1.3333;}
</style>
<g id="g10" transform="matrix(1.3333333,0,0,-1.3333333,0,351.17333)">
	<g id="g12" transform="scale(0.1)">
		<path id="path14" class="st0" d="M316.926,1897.262c5.963,0,11.362,4.08,12.797,10.133l62.872,240.215
			c1.674,7.075-2.701,14.168-9.775,15.843c-7.072,1.675-14.165-2.705-15.84-9.778l-62.872-240.218
			c-1.675-7.071,2.702-14.162,9.774-15.839C314.902,1897.376,315.922,1897.262,316.926,1897.262"/>
		<path id="path16" class="st1" d="M316.926,1897.262c5.963,0,11.362,4.08,12.797,10.133l62.872,240.215
			c1.674,7.075-2.701,14.168-9.775,15.843c-7.072,1.675-14.165-2.705-15.84-9.778l-62.872-240.218
			c-1.675-7.071,2.702-14.162,9.774-15.839C314.902,1897.376,315.922,1897.262,316.926,1897.262z"/>
		<path id="path18" class="st0" d="M499.399,1897.356c-4.762,0-9.358,2.592-11.697,7.112l-119.191,241.4
			c-3.344,6.455-0.822,14.396,5.633,17.74c6.456,3.341,14.398,0.821,17.739-5.636l119.193-241.398
			c3.343-6.455,0.819-14.398-5.637-17.74C503.506,1897.833,501.436,1897.356,499.399,1897.356"/>
		<path id="path20" class="st1" d="M499.399,1897.356c-4.762,0-9.358,2.592-11.697,7.112l-119.191,241.4
			c-3.344,6.455-0.822,14.396,5.633,17.74c6.456,3.341,14.398,0.821,17.739-5.636l119.193-241.398
			c3.343-6.455,0.819-14.398-5.637-17.74C503.506,1897.833,501.436,1897.356,499.399,1897.356z"/>
		<path id="path22" class="st0" d="M685.292,1897.356c-2.233,0-4.495,0.57-6.57,1.767c-6.295,3.633-8.45,11.685-4.815,17.977
			l139.369,241.4c3.635,6.297,11.683,8.452,17.98,4.817c6.297-3.633,8.452-11.683,4.817-17.978l-139.371-241.401
			C694.266,1899.718,689.838,1897.356,685.292,1897.356"/>
		<path id="path24" class="st1" d="M685.292,1897.356c-2.233,0-4.495,0.57-6.57,1.767c-6.295,3.633-8.45,11.685-4.815,17.977
			l139.369,241.4c3.635,6.297,11.683,8.452,17.98,4.817c6.297-3.633,8.452-11.683,4.817-17.978l-139.371-241.401
			C694.266,1899.718,689.838,1897.356,685.292,1897.356L685.292,1897.356z"/>
		<path id="path26" class="st0" d="M964.798,1897.356c-4.548,0-8.973,2.362-11.41,6.582l-139.486,241.596
			c-3.635,6.295-1.478,14.345,4.817,17.979c6.293,3.637,14.343,1.478,17.978-4.819l139.488-241.595
			c3.635-6.293,1.478-14.345-4.817-17.977C969.297,1897.927,967.031,1897.356,964.798,1897.356"/>
		<path id="path28" class="st1" d="M964.798,1897.356c-4.548,0-8.973,2.362-11.41,6.582l-139.486,241.596
			c-3.635,6.295-1.478,14.345,4.817,17.979c6.293,3.637,14.343,1.478,17.978-4.819l139.488-241.595
			c3.635-6.293,1.478-14.345-4.817-17.977C969.297,1897.927,967.031,1897.356,964.798,1897.356z"/>
		<path id="path30" class="st0" d="M683.287,1897.258c-5.964,0-11.365,4.078-12.799,10.133l-62.871,240.997
			c-1.675,7.075,2.701,14.168,9.776,15.841c7.071,1.677,14.164-2.703,15.839-9.776l62.873-240.999
			c1.675-7.073-2.703-14.165-9.776-15.839C685.309,1897.372,684.289,1897.258,683.287,1897.258"/>
		<path id="path32" class="st1" d="M683.287,1897.258c-5.964,0-11.365,4.078-12.799,10.133l-62.871,240.997
			c-1.675,7.075,2.701,14.168,9.776,15.841c7.071,1.677,14.164-2.703,15.839-9.776l62.873-240.999
			c1.675-7.073-2.703-14.165-9.776-15.839C685.309,1897.372,684.289,1897.258,683.287,1897.258z"/>
		<path id="path34" class="st0" d="M500.875,1897.323c-2.038,0-4.107,0.476-6.04,1.475c-6.455,3.344-8.98,11.287-5.636,17.742
			l119.369,241.742c3.343,6.455,11.284,8.979,17.74,5.636c6.455-3.344,8.978-11.287,5.634-17.74l-119.368-241.744
			C510.233,1899.913,505.637,1897.323,500.875,1897.323"/>
		<path id="path36" class="st1" d="M500.875,1897.323c-2.038,0-4.107,0.476-6.04,1.475c-6.455,3.344-8.98,11.287-5.636,17.742
			l119.369,241.742c3.343,6.455,11.284,8.979,17.74,5.636c6.455-3.344,8.978-11.287,5.634-17.74l-119.368-241.744
			C510.233,1899.913,505.637,1897.323,500.875,1897.323z"/>
		<path id="path38" class="st0" d="M966.656,1897.305c-2.986,0-5.985,1.009-8.454,3.079c-5.568,4.673-6.293,12.973-1.621,18.544
			l202.848,241.745c4.673,5.568,12.976,6.293,18.544,1.624c5.566-4.674,6.293-12.976,1.624-18.544l-202.85-241.747
			C974.143,1898.904,970.414,1897.305,966.656,1897.305"/>
		<path id="path40" class="st1" d="M966.656,1897.305c-2.986,0-5.985,1.009-8.454,3.079c-5.568,4.673-6.293,12.973-1.621,18.544
			l202.848,241.745c4.673,5.568,12.976,6.293,18.544,1.624c5.566-4.674,6.293-12.976,1.624-18.544l-202.85-241.747
			C974.143,1898.904,970.414,1897.305,966.656,1897.305z"/>
		<path id="path42" class="st0" d="M1176.092,1897.303c-3.758,0-7.485,1.597-10.088,4.698l-202.877,241.784
			c-4.671,5.566-3.947,13.866,1.623,18.54c5.568,4.674,13.871,3.947,18.54-1.621l202.879-241.78
			c4.669-5.57,3.945-13.87-1.624-18.542C1182.081,1898.31,1179.078,1897.303,1176.092,1897.303"/>
		<path id="path44" class="st1" d="M1176.092,1897.303c-3.758,0-7.485,1.597-10.088,4.698l-202.877,241.784
			c-4.671,5.566-3.947,13.866,1.623,18.54c5.568,4.674,13.871,3.947,18.54-1.621l202.879-241.78
			c4.669-5.57,3.945-13.87-1.624-18.542C1182.081,1898.31,1179.078,1897.303,1176.092,1897.303L1176.092,1897.303z"/>
		<path id="path46" class="st0" d="M941.934,2220.728c-5.265,24.141,53.592,57.475,131.459,74.453
			c3.479,0.76,6.931,1.472,10.361,2.141l-0.609-0.135c-75.784-16.524-133.224-48.25-128.292-70.862
			c4.928-22.614,70.447-25.732,146.235-9.209c51.33,11.192,94.159,27.542,114.98,45.13c-18.343-20.207-65.722-41.866-123.61-54.487
			C1014.587,2190.778,947.198,2196.586,941.934,2220.728"/>
		<path id="path48" class="st2" d="M941.934,2220.728c-5.265,24.141,53.592,57.475,131.459,74.453
			c3.479,0.76,6.931,1.472,10.361,2.141l-0.609-0.135c-75.784-16.524-133.224-48.25-128.292-70.862
			c4.928-22.614,70.447-25.732,146.235-9.209c51.33,11.192,94.159,27.542,114.98,45.13c-18.343-20.207-65.722-41.866-123.61-54.487
			C1014.587,2190.778,947.198,2196.586,941.934,2220.728L941.934,2220.728z"/>
		<path id="path50" class="st0" d="M681.977,2055.134c-18.737,69.926,132.461,171.191,337.712,226.189
			c9.164,2.455,19.24,4.979,28.295,7.169l-2.566-0.634c-199.763-53.526-347.474-150.011-329.923-215.506
			c17.549-65.496,193.71-75.201,393.474-21.674c135.309,36.257,246.732,92.22,299.099,144.913
			c-45.23-60.144-167.942-126.599-320.531-167.484C882.289,1973.111,700.714,1985.212,681.977,2055.134"/>
		<path id="path52" class="st3" d="M681.977,2055.134c-18.737,69.926,132.461,171.191,337.712,226.189
			c9.164,2.455,19.24,4.979,28.295,7.169l-2.566-0.634c-199.763-53.526-347.474-150.011-329.923-215.506
			c17.549-65.496,193.71-75.201,393.474-21.674c135.309,36.257,246.732,92.22,299.099,144.913
			c-45.23-60.144-167.942-126.599-320.531-167.484C882.289,1973.111,700.714,1985.212,681.977,2055.134z"/>
		<path id="path54" class="st0" d="M1303.329,1897.196c-7.268,0-13.16,5.89-13.16,13.162v241.759c0,7.268,5.893,13.16,13.16,13.16
			c7.268,0,13.161-5.893,13.161-13.16v-241.759C1316.49,1903.086,1310.597,1897.196,1303.329,1897.196"/>
		<path id="path56" class="st1" d="M1303.329,1897.196c-7.268,0-13.16,5.89-13.16,13.162v241.759c0,7.268,5.893,13.16,13.16,13.16
			c7.268,0,13.161-5.893,13.161-13.16v-241.759C1316.49,1903.086,1310.597,1897.196,1303.329,1897.196z"/>
		<path id="path58" class="st0" d="M1472.445,1897.356c-4.762,0-9.355,2.592-11.697,7.112l-126.463,241.4
			c-3.344,6.455-0.823,14.396,5.632,17.74c6.457,3.341,14.4,0.821,17.742-5.636l126.465-241.398
			c3.344-6.455,0.817-14.398-5.636-17.74C1476.55,1897.833,1474.481,1897.356,1472.445,1897.356"/>
		<path id="path60" class="st1" d="M1472.445,1897.356c-4.762,0-9.355,2.592-11.697,7.112l-126.463,241.4
			c-3.344,6.455-0.823,14.396,5.632,17.74c6.457,3.341,14.4,0.821,17.742-5.636l126.465-241.398
			c3.344-6.455,0.817-14.398-5.636-17.74C1476.55,1897.833,1474.481,1897.356,1472.445,1897.356z"/>
		<path id="path62" class="st0" d="M1473.92,1897.323c-2.036,0-4.109,0.476-6.041,1.475c-6.455,3.344-8.979,11.287-5.636,17.742
			l126.644,241.742c3.339,6.455,11.285,8.979,17.733,5.636c6.459-3.344,8.979-11.287,5.636-17.74l-126.64-241.744
			C1483.278,1899.913,1478.682,1897.323,1473.92,1897.323"/>
		<path id="path64" class="st1" d="M1473.92,1897.323c-2.036,0-4.109,0.476-6.041,1.475c-6.455,3.344-8.979,11.287-5.636,17.742
			l126.644,241.742c3.339,6.455,11.285,8.979,17.733,5.636c6.459-3.344,8.979-11.287,5.636-17.74l-126.64-241.744
			C1483.278,1899.913,1478.682,1897.323,1473.92,1897.323L1473.92,1897.323z"/>
	</g>
</g>
</svg>
