<svg id="Layer_3" data-name="Layer 3" xmlns="http://www.w3.org/2000/svg" viewBox="0 0 560 560"><defs><style>.cls-1{fill:#fff;}</style></defs><title>Notify_Filter</title><path class="cls-1" d="M488.9,441.49,467,375.77l4-8.35a217.52,217.52,0,0,0,21.72-80.84c.7-9.14.3-30.39-.73-39.21-5.91-50.59-27.44-95.21-63.13-130.87s-81-57.16-131.56-62.67a328.63,328.63,0,0,0-38.06-.67,225.15,225.15,0,0,0-64.73,14.7,273.29,273.29,0,0,0-28.36,13.58,229.6,229.6,0,0,0-58.7,49,218.7,218.7,0,0,0,151.33,359c9.19.7,31.46.31,39.91-.69,26.54-3.17,48.34-9.5,71.65-20.82l8.72-4.24,65.72,21.9c36.15,12.05,65.77,21.84,65.85,21.77S501,477.64,488.9,441.49Zm-171.3-53h-87a17.73,17.73,0,1,1,0-35.46h87a17.73,17.73,0,0,1,0,35.46ZM341,301.21H207.19a17.73,17.73,0,0,1,0-35.46H341a17.73,17.73,0,1,1,0,35.46Zm35.27-87.27H171.93a17.73,17.73,0,0,1,0-35.46H376.26a17.73,17.73,0,0,1,0,35.46Z"/></svg>