<svg id="Layer_3" data-name="Layer 3" xmlns="http://www.w3.org/2000/svg" viewBox="0 0 560 560"><defs><style>.cls-1{fill:#fff;}</style></defs><title>Notify_filter_selected</title><path class="cls-1" d="M492.09,246.55,480,242.24a202.29,202.29,0,0,0-31.57-76.19l5.53-11.63C468.45,123.86,436.57,92,406,106.5L394.38,112a202.45,202.45,0,0,0-76.19-31.57l-4.31-12.12c-11.34-31.88-56.42-31.88-67.76,0l-4.31,12.12A202.45,202.45,0,0,0,165.62,112L154,106.5C123.43,92,91.55,123.86,106.07,154.42l5.53,11.63A202.29,202.29,0,0,0,80,242.24l-12.12,4.31C36,257.89,36,303,67.91,314.32L80,318.63a202.42,202.42,0,0,0,31.57,76.19l-5.53,11.62C91.55,437,123.43,468.89,154,454.36l11.63-5.53a202.29,202.29,0,0,0,76.19,31.57l4.31,12.12c11.34,31.88,56.42,31.88,67.76,0l4.31-12.12a202.29,202.29,0,0,0,76.19-31.57L406,454.36c30.56,14.53,62.44-17.36,47.92-47.92l-5.53-11.62A202.42,202.42,0,0,0,480,318.63l12.12-4.31C524,303,524,257.89,492.09,246.55Zm-106.8-42.68L259.12,410.49a19.85,19.85,0,0,1-14.57,9.35,20.54,20.54,0,0,1-2.34.14,19.79,19.79,0,0,1-14-5.81l-72.83-72.82a19.81,19.81,0,0,1,28-28l55,55L351.47,183.22a19.81,19.81,0,1,1,33.82,20.65Z"/></svg>